<svg xmlns="http://www.w3.org/2000/svg" viewBox="0 0 680.69 155.84"><defs><style>.cls-1{fill:#00b3cc;}.cls-2{fill:#1b3750;}</style></defs><title>final echo logo summer 2020</title><g id="Final_Fixed" data-name="Final Fixed"><path class="cls-1" d="M153.12,120.21V70.88a13.47,13.47,0,0,0-4.5-10L86,5.08A13.44,13.44,0,0,0,68.2,5L5.65,60.22A13.44,13.44,0,0,0,1.1,70.3v68A13.44,13.44,0,0,0,14.54,151.7h82.3a13.44,13.44,0,0,0,13.44-13.44V79.19A13.45,13.45,0,0,0,96.84,65.74H58.15A13.45,13.45,0,0,0,44.7,79.19V92.08a17.77,17.77,0,1,0,15-.09V84.21a3.42,3.42,0,0,1,3.42-3.42H91.81a3.42,3.42,0,0,1,3.43,3.42v49a3.43,3.43,0,0,1-3.43,3.43H19.57a3.44,3.44,0,0,1-3.43-3.43V72.57A3.44,3.44,0,0,1,17.3,70L74.81,19.27a3.42,3.42,0,0,1,4.54,0l57.58,51.3a3.42,3.42,0,0,1,1.14,2.56v47.07a17.77,17.77,0,1,0,15.05,0Zm-100.8-7a5.14,5.14,0,1,1,5.14-5.14A5.14,5.14,0,0,1,52.32,113.25Zm93.27,28.17a5.14,5.14,0,1,1,5.14-5.13A5.13,5.13,0,0,1,145.59,141.42Z"/><path class="cls-2" d="M192.87,96.35C192.87,64,217,39.83,250,39.83c30.78,0,56.85,21.47,56.82,60a3.68,3.68,0,0,1-3.67,3.67h-79a1.94,1.94,0,0,0-1.92,2.25c2,11.84,11.48,21.66,29.07,21.66,9.39,0,17.72-3.52,21.83-9.78a4.67,4.67,0,0,1,3.87-2.18h23.26a3.67,3.67,0,0,1,3.4,5.06c-8,19.29-28.45,32.76-53.88,32.76C216.57,153.3,192.87,129.39,192.87,96.35ZM225.63,84h46a1.93,1.93,0,0,0,1.84-2.52C269.32,68.77,258.57,64,249.17,64c-12.93,0-21.91,6.76-25.39,17.49A1.93,1.93,0,0,0,225.63,84Z"/><path class="cls-2" d="M321.55,96.57c0-31.52,24.13-56.74,57.17-56.74,28,0,47.15,16.52,54.32,39.09a3.67,3.67,0,0,1-3.47,4.82H407.05a5.71,5.71,0,0,1-5-3.07c-4.41-8.17-11.88-13.88-23.32-13.88-15.65,0-27.17,11.52-27.17,29.78s11.52,29.78,27.17,29.78c11.44,0,18.91-5.71,23.32-13.88a5.71,5.71,0,0,1,5-3.07h22.52a3.67,3.67,0,0,1,3.47,4.82c-7.17,22.57-26.28,39.08-54.32,39.08C345.68,153.3,321.55,128.09,321.55,96.57Z"/><path class="cls-2" d="M565.81,96.57a57.17,57.17,0,0,1,114.34,0c0,32-25.65,56.73-57.17,56.73S565.81,128.52,565.81,96.57Zm84.12,0c0-16.74-11.52-28.91-26.95-28.91-15.65,0-27.17,12.17-27.17,28.91s11.52,28.91,27.17,28.91C638.41,125.48,649.93,113.31,649.93,96.57Z"/><path class="cls-2" d="M454.19,41.17h23a3.66,3.66,0,0,1,3.66,3.66V81.59a1.92,1.92,0,0,0,1.93,1.93h36.89a1.92,1.92,0,0,0,1.93-1.93V44.83a3.66,3.66,0,0,1,3.66-3.66h23A3.66,3.66,0,0,1,552,44.83V148.26a3.66,3.66,0,0,1-3.66,3.66h-23a3.66,3.66,0,0,1-3.66-3.66v-36.8a1.92,1.92,0,0,0-1.93-1.92H482.8a1.92,1.92,0,0,0-1.93,1.92v36.8a3.66,3.66,0,0,1-3.66,3.66h-23a3.66,3.66,0,0,1-3.66-3.66V44.83A3.66,3.66,0,0,1,454.19,41.17Z"/></g></svg>