<svg width="22" height="21" viewBox="0 0 22 21" fill="none" xmlns="http://www.w3.org/2000/svg">
<path d="M11 20.5C7.40625 20.5 4.125 18.625 2.32812 15.5C0.53125 12.4141 0.53125 8.625 2.32812 5.5C4.125 2.41406 7.40625 0.5 11 0.5C14.5547 0.5 17.8359 2.41406 19.6328 5.5C21.4297 8.625 21.4297 12.4141 19.6328 15.5C17.8359 18.625 14.5547 20.5 11 20.5ZM15.4141 8.66406H15.375C15.7656 8.3125 15.7656 7.72656 15.375 7.33594C15.0234 6.98438 14.4375 6.98438 14.0859 7.33594L9.75 11.7109L7.91406 9.875C7.52344 9.48438 6.9375 9.48438 6.58594 9.875C6.19531 10.2266 6.19531 10.8125 6.58594 11.1641L9.08594 13.6641C9.4375 14.0547 10.0234 14.0547 10.4141 13.6641L15.4141 8.66406Z" fill="#58B445"/>
</svg>
