<?xml version="1.0" encoding="utf-8"?>
<!-- Generator: Adobe Illustrator 23.0.4, SVG Export Plug-In . SVG Version: 6.00 Build 0)  -->
<svg version="1.1" id="Layer_1" xmlns="http://www.w3.org/2000/svg" xmlns:xlink="http://www.w3.org/1999/xlink" x="0px" y="0px"
	 viewBox="0 0 341.4 418.5" style="enable-background:new 0 0 341.4 418.5;" xml:space="preserve">
<style type="text/css">
	.st0{fill:#00B3CC;}
	.st1{fill:#1B3750;}
</style>
<g>
	<path class="st0" d="M314.6,242.9v-100c0-7.7-3.3-15.1-9.1-20.3L178.6,9.5c-10.3-9.2-25.7-9.2-36.1-0.2l-126.8,112
		c-5.9,5.2-9.2,12.6-9.2,20.4v137.9c0,15,12.2,27.2,27.2,27.2h166.9c15,0,27.2-12.2,27.2-27.2l0,0V159.8c0-15.1-12.2-27.3-27.2-27.3
		h-78.4c-15.1,0-27.3,12.2-27.3,27.3c0,0,0,0,0,0v26.1c-18,8.5-25.7,30-17.2,48c8.5,18,30,25.7,48,17.2c18-8.5,25.7-30,17.2-48
		c-3.6-7.7-9.8-13.8-17.6-17.3v-15.8c0-3.8,3.1-6.9,6.9-6.9h58.2c3.8,0,6.9,3.1,7,6.9c0,0,0,0,0,0v99.3c0,3.8-3.1,7-7,7H43.9
		c-3.8,0-6.9-3.1-7-7V146.3c0-2,0.9-3.9,2.4-5.2L155.9,38.3c2.6-2.3,6.6-2.3,9.2,0l116.7,104c1.5,1.3,2.3,3.2,2.3,5.2v95.4
		c-18,8.4-25.8,29.9-17.4,47.9c8.4,18,29.9,25.8,47.9,17.4s25.8-29.9,17.4-47.9C328.4,252.6,322.3,246.5,314.6,242.9L314.6,242.9z
		 M110.3,228.7c-5.8,0-10.4-4.7-10.4-10.4c0-5.8,4.7-10.4,10.4-10.4c5.8,0,10.4,4.7,10.4,10.4l0,0
		C120.7,224.1,116.1,228.8,110.3,228.7C110.3,228.8,110.3,228.8,110.3,228.7L110.3,228.7z M299.4,285.9c-5.8,0-10.4-4.7-10.4-10.4
		c0-5.8,4.7-10.4,10.4-10.4c5.8,0,10.4,4.7,10.4,10.4c0,0,0,0,0,0c0,5.7-4.6,10.4-10.3,10.5C299.4,285.9,299.4,285.9,299.4,285.9
		L299.4,285.9z"/>
	<g>
		<path class="st1" d="M7.9,377.5c0-21.6,16.1-37.8,38.2-37.8c20.6,0,38,14.4,38,40.1c0,1.4-1.1,2.5-2.5,2.5H28.8
			c-0.7,0-1.3,0.6-1.3,1.3c0,0.1,0,0.1,0,0.2c1.3,7.9,7.7,14.5,19.5,14.5c6.3,0,11.9-2.4,14.6-6.5c0.6-0.9,1.5-1.4,2.6-1.5h15.6
			c1.4,0,2.5,1.1,2.5,2.5c0,0.3-0.1,0.6-0.2,0.9c-5.4,12.9-19,21.9-36.1,21.9C23.8,415.6,7.9,399.6,7.9,377.5z M29.8,369.3h30.8
			c0.7,0,1.3-0.6,1.3-1.3c0-0.1,0-0.3-0.1-0.4c-2.8-8.5-10-11.7-16.3-11.7c-8.7,0-14.7,4.5-17,11.7c-0.2,0.7,0.2,1.4,0.8,1.6
			C29.6,369.2,29.7,369.3,29.8,369.3z"/>
		<path class="st1" d="M94,377.7c0-21.1,16.1-38,38.3-38c18.7,0,31.6,11.1,36.3,26.2c0.4,1.3-0.3,2.7-1.6,3.1
			c-0.2,0.1-0.5,0.1-0.8,0.1h-15.1c-1.4,0-2.7-0.8-3.3-2.1c-3-5.5-7.9-9.3-15.6-9.3c-10.5,0-18.2,7.7-18.2,19.9s7.7,19.9,18.2,19.9
			c7.7,0,12.7-3.8,15.6-9.3c0.7-1.2,1.9-2,3.3-2.1h15.1c1.4,0,2.5,1.1,2.4,2.5c0,0.3,0,0.5-0.1,0.8c-4.8,15.1-17.6,26.2-36.3,26.2
			C110.2,415.6,94,398.8,94,377.7z"/>
		<path class="st1" d="M257.5,377.7c0-21.1,17.1-38.3,38.3-38.3s38.3,17.1,38.3,38.3c0,21.4-17.2,38-38.3,38
			S257.5,399.1,257.5,377.7z M313.7,377.7c0-11.2-7.7-19.3-18-19.3c-10.5,0-18.2,8.1-18.2,19.3s7.7,19.3,18.2,19.3
			C306,397,313.7,388.9,313.7,377.7z"/>
		<path class="st1" d="M182.8,340.6h15.4c1.4,0,2.4,1.1,2.4,2.4l0,0v24.6c0,0.7,0.6,1.3,1.3,1.3c0,0,0,0,0,0h24.7
			c0.7,0,1.3-0.6,1.3-1.3c0,0,0,0,0,0v-24.6c0-1.4,1.1-2.4,2.4-2.4h15.4c1.4,0,2.5,1,2.5,2.4c0,0,0,0,0,0.1v69.2
			c0,1.4-1.1,2.4-2.4,2.4h-15.4c-1.4,0-2.4-1.1-2.4-2.4v-24.6c0-0.7-0.6-1.3-1.3-1.3c0,0,0,0,0,0h-24.7c-0.7,0-1.3,0.6-1.3,1.3
			c0,0,0,0,0,0v24.6c0,1.4-1.1,2.4-2.4,2.4l0,0h-15.4c-1.4,0-2.4-1.1-2.4-2.4l0,0v-69.2C180.3,341.7,181.4,340.6,182.8,340.6z"/>
	</g>
</g>
</svg>
